<svg style="fill-rule:evenodd;" xmlns="http://www.w3.org/2000/svg" version="1.1" viewBox="0 0 239 239">
  <path
     d="M119.5+9C58.4725+8.99998+9+58.4725+9+119.5C9+180.527+58.4725+230+119.5+230C180.527+230+230+180.527+230+119.5C230+58.4725+180.527+9+119.5+9ZM119.5+6.6103e-06C185.498+6.6103e-06+239+53.502+239+119.5C239+185.498+185.498+239+119.5+239C53.502+239+0+185.498+0+119.5C0+53.502+53.502+3.70007e-05+119.5+6.6103e-06Z"
     opacity="1"
     fill="#434343"
      />
  <g
     id="g1488"
     transform="matrix(0.96403721,0,0,0.96403624,8.9434369,11.82574)"
     style="fill:#434343;fill-opacity:1">
    <path
       fill-rule="evenodd"
       d="m 114.67128,64.867052 c -20.789396,0.008 -39.085207,13.720761 -44.925791,33.671519 -5.84055,19.950639 2.172637,41.362039 19.67475,52.580949 17.502111,11.2189 40.303561,9.55978 55.993071,-4.07765 15.68959,-13.63751 20.51032,-35.98783 11.83698,-54.881543 l 8.50457,-3.905729 c 10.40756,22.673682 4.62085,49.494882 -14.20869,65.858972 -18.82944,16.36401 -46.19258,18.35219 -67.194196,4.88636 C 63.350353,145.53409 53.737922,119.83789 60.750927,95.897421 67.763974,71.956813 89.723074,55.50504 114.67128,55.500796 Z"
       style="fill:#434343;fill-opacity:1;stroke-width:9.36623"
     />
    <path
       d="m 114.67128,78.597565 v -36.828118 0 l 27.41996,18.414059 -27.41996,18.414059 c 0,0 7.4e-4,1.984588 0,0 z"
       style="fill:#434343;fill-opacity:1;stroke-width:9.36623"
     />
  </g>
</svg>
